<svg width="22" height="22" viewBox="0 0 22 22" fill="none" xmlns="http://www.w3.org/2000/svg">
<path d="M3.66669 17.4168L3.66669 15.5835H5.50002L5.50002 9.16683C5.50002 7.89877 5.88196 6.77204 6.64585 5.78662C7.40974 4.8012 8.4028 4.15572 9.62502 3.85016V3.2085C9.62502 2.82655 9.7587 2.5019 10.0261 2.23454C10.2934 1.96718 10.6181 1.8335 11 1.8335C11.382 1.8335 11.7066 1.96718 11.974 2.23454C12.2413 2.5019 12.375 2.82655 12.375 3.2085V3.85016C13.5972 4.15572 14.5903 4.8012 15.3542 5.78662C16.1181 6.77204 16.5 7.89877 16.5 9.16683V15.5835H18.3334V17.4168H3.66669ZM11 20.1668C10.4959 20.1668 10.0643 19.9873 9.70523 19.6283C9.3462 19.2693 9.16669 18.8377 9.16669 18.3335H12.8334C12.8334 18.8377 12.6538 19.2693 12.2948 19.6283C11.9358 19.9873 11.5042 20.1668 11 20.1668ZM7.33335 15.5835L14.6667 15.5835V9.16683C14.6667 8.1585 14.3077 7.2953 13.5896 6.57725C12.8715 5.85919 12.0084 5.50016 11 5.50016C9.99169 5.50016 9.12849 5.85919 8.41044 6.57725C7.69238 7.2953 7.33335 8.1585 7.33335 9.16683V15.5835Z" fill="black"/>
</svg>
