<svg width="25" height="25" viewBox="0 0 25 25" fill="none" xmlns="http://www.w3.org/2000/svg">
<path d="M13.9719 12.5034L7.63005 6.9436C7.41446 6.75462 7.30417 6.51706 7.29919 6.23094C7.29418 5.94483 7.40447 5.70291 7.63005 5.50516C7.85561 5.3074 8.12908 5.20852 8.45044 5.20852C8.77181 5.20852 9.04528 5.3074 9.27084 5.50516L16.2684 11.6398C16.4142 11.7675 16.517 11.9023 16.5768 12.044C16.6367 12.1858 16.6667 12.3389 16.6667 12.5034C16.6667 12.6679 16.6367 12.821 16.5768 12.9628C16.517 13.1045 16.4142 13.2393 16.2684 13.367L9.27084 19.5016C9.05527 19.6906 8.78429 19.7873 8.45792 19.7917C8.13157 19.7961 7.85561 19.6994 7.63005 19.5016C7.40447 19.3039 7.29167 19.0641 7.29167 18.7824C7.29167 18.5007 7.40447 18.2609 7.63005 18.0632L13.9719 12.5034Z" fill="black"/>
</svg>
