<svg width="27" height="27" viewBox="0 0 27 27" fill="none" xmlns="http://www.w3.org/2000/svg">
<path d="M13.1283 14.6251V13.8717H12.375H6.74997C6.62094 13.8717 6.54848 13.8363 6.48111 13.769C6.41374 13.7016 6.37832 13.6291 6.37832 13.5001C6.37832 13.3711 6.41374 13.2986 6.48111 13.2312L5.95349 12.7036L6.48111 13.2312C6.54848 13.1639 6.62094 13.1284 6.74997 13.1284H12.375H13.1283V12.3751V6.7501C13.1283 6.62107 13.1637 6.5486 13.2311 6.48123L12.7011 5.95118L13.2311 6.48123C13.2985 6.41386 13.3709 6.37845 13.5 6.37845C13.629 6.37845 13.7015 6.41386 13.7688 6.48123C13.8362 6.5486 13.8716 6.62107 13.8716 6.7501V12.3751V13.1284H14.625H20.25C20.379 13.1284 20.4515 13.1639 20.5188 13.2312C20.5862 13.2986 20.6216 13.3711 20.6216 13.5001C20.6216 13.6291 20.5862 13.7016 20.5188 13.769C20.4515 13.8363 20.379 13.8717 20.25 13.8717H14.625H13.8716V14.6251V20.2501C13.8716 20.3791 13.8362 20.4516 13.7688 20.519C13.7015 20.5863 13.629 20.6217 13.5 20.6217C13.3709 20.6217 13.2985 20.5863 13.2311 20.519C13.1637 20.4516 13.1283 20.3791 13.1283 20.2501V14.6251Z" stroke="white" stroke-width="1.5"/>
</svg>
