<svg width="20" height="20" viewBox="0 0 20 20" fill="none" xmlns="http://www.w3.org/2000/svg">
<path d="M9.99151 17.4998C9.8037 17.4998 9.61506 17.4649 9.42557 17.3953C9.23607 17.3256 9.06934 17.2164 8.9254 17.0678L7.66531 15.885C6.10998 14.4206 4.72137 12.982 3.49949 11.5693C2.27761 10.1566 1.66667 8.64313 1.66667 7.02894C1.66667 5.74339 2.08642 4.66716 2.92594 3.80024C3.76545 2.93333 4.80767 2.49988 6.0526 2.49988C6.75996 2.49988 7.45862 2.66827 8.14858 3.00505C8.83852 3.34183 9.45564 3.88881 9.99995 4.64598C10.5443 3.88881 11.1614 3.34183 11.8513 3.00505C12.5413 2.66827 13.2399 2.49988 13.9473 2.49988C15.1922 2.49988 16.2345 2.93333 17.074 3.80024C17.9135 4.66716 18.3332 5.74339 18.3332 7.02894C18.3332 8.66055 17.7119 10.1909 16.4692 11.6198C15.2265 13.0488 13.841 14.4752 12.3127 15.8989L11.0661 17.0678C10.9221 17.2164 10.754 17.3256 10.5617 17.3953C10.3694 17.4649 10.1793 17.4998 9.99151 17.4998Z" fill="black"/>
</svg>
