<svg width="20" height="20" viewBox="0 0 20 20" fill="none" xmlns="http://www.w3.org/2000/svg">
<path d="M9.99151 17.4998C9.8037 17.4998 9.61506 17.4649 9.42557 17.3953C9.23607 17.3256 9.06934 17.2164 8.9254 17.0678L7.66531 15.885C6.10998 14.4206 4.72137 12.982 3.49949 11.5693C2.27761 10.1566 1.66667 8.64313 1.66667 7.02894C1.66667 5.74339 2.08642 4.66716 2.92594 3.80024C3.76545 2.93333 4.80767 2.49988 6.0526 2.49988C6.75996 2.49988 7.45862 2.66827 8.14858 3.00505C8.83852 3.34183 9.45564 3.88881 9.99995 4.64598C10.5443 3.88881 11.1614 3.34183 11.8513 3.00505C12.5413 2.66827 13.2399 2.49988 13.9473 2.49988C15.1922 2.49988 16.2345 2.93333 17.074 3.80024C17.9135 4.66716 18.3332 5.74339 18.3332 7.02894C18.3332 8.66055 17.7119 10.1909 16.4692 11.6198C15.2265 13.0488 13.841 14.4752 12.3127 15.8989L11.0661 17.0678C10.9221 17.2164 10.754 17.3256 10.5617 17.3953C10.3694 17.4649 10.1793 17.4998 9.99151 17.4998ZM9.36906 6.0221C8.89448 5.27537 8.39488 4.72811 7.87025 4.38031C7.34561 4.03249 6.73973 3.85858 6.0526 3.85858C5.17541 3.85858 4.44441 4.16052 3.85962 4.76439C3.27483 5.36827 2.98243 6.12312 2.98243 7.02894C2.98243 7.75591 3.20932 8.51599 3.66309 9.30915C4.11686 10.1023 4.68646 10.8908 5.3719 11.6747C6.05735 12.4586 6.79987 13.2245 7.59946 13.9723C8.39904 14.7202 9.14016 15.4153 9.82281 16.0575C9.87342 16.1039 9.93247 16.1272 9.99995 16.1272C10.0674 16.1272 10.1265 16.1039 10.1771 16.0575C10.8597 15.4153 11.6009 14.7202 12.4005 13.9723C13.2 13.2245 13.9426 12.4586 14.628 11.6747C15.3134 10.8908 15.8831 10.1023 16.3368 9.30915C16.7906 8.51599 17.0175 7.75591 17.0175 7.02894C17.0175 6.12312 16.7251 5.36827 16.1403 4.76439C15.5555 4.16052 14.8245 3.85858 13.9473 3.85858C13.2602 3.85858 12.6543 4.03249 12.1297 4.38031C11.605 4.72811 11.1054 5.27537 10.6309 6.0221C10.5566 6.13822 10.4633 6.22533 10.3508 6.2834C10.2384 6.34147 10.1214 6.3705 9.99995 6.3705C9.87851 6.3705 9.76155 6.34147 9.64908 6.2834C9.53662 6.22533 9.44328 6.13822 9.36906 6.0221Z" fill="black"/>
</svg>
