<svg width="24" height="24" viewBox="0 0 24 24" fill="none" xmlns="http://www.w3.org/2000/svg">
<path d="M2 19.7143V9.42857C2 9.06667 2.08854 8.72381 2.26562 8.4C2.44271 8.07619 2.6875 7.80952 3 7.6L10.5 2.45714C10.9375 2.15238 11.4375 2 12 2C12.5625 2 13.0625 2.15238 13.5 2.45714L21 7.6C21.3125 7.80952 21.5573 8.07619 21.7344 8.4C21.9115 8.72381 22 9.06667 22 9.42857V19.7143C22 20.3429 21.7552 20.881 21.2656 21.3286C20.776 21.7762 20.1875 22 19.5 22H15.75C15.3958 22 15.099 21.8905 14.8594 21.6714C14.6198 21.4524 14.5 21.181 14.5 20.8571V15.1429C14.5 14.819 14.3802 14.5476 14.1406 14.3286C13.901 14.1095 13.6042 14 13.25 14H10.75C10.3958 14 10.099 14.1095 9.85938 14.3286C9.61979 14.5476 9.5 14.819 9.5 15.1429V20.8571C9.5 21.181 9.38021 21.4524 9.14062 21.6714C8.90104 21.8905 8.60417 22 8.25 22H4.5C3.8125 22 3.22396 21.7762 2.73438 21.3286C2.24479 20.881 2 20.3429 2 19.7143Z" fill="#5856D6"/>
</svg>
