<svg width="24" height="24" viewBox="0 0 24 24" fill="none" xmlns="http://www.w3.org/2000/svg">
<path d="M4.25 19V19.75H5H19H19.75V19V5V4.25H19H5H4.25V5V19ZM5 20.25C4.65049 20.25 4.36997 20.1343 4.11783 19.8822C3.86569 19.63 3.75 19.3495 3.75 19V5C3.75 4.65049 3.86569 4.36997 4.11783 4.11783C4.36997 3.86569 4.65049 3.75 5 3.75H19C19.3495 3.75 19.63 3.86569 19.8822 4.11783C20.1343 4.36997 20.25 4.65049 20.25 5V19C20.25 19.3495 20.1343 19.63 19.8822 19.8822C19.63 20.1343 19.3495 20.25 19 20.25H5ZM7.81783 10.8178C7.8619 10.7738 7.90554 10.75 8 10.75C8.09446 10.75 8.1381 10.7738 8.18217 10.8178C8.22624 10.8619 8.25 10.9055 8.25 11V16C8.25 16.0945 8.22624 16.1381 8.18217 16.1822C8.1381 16.2262 8.09446 16.25 8 16.25C7.90554 16.25 7.8619 16.2262 7.81783 16.1822C7.77376 16.1381 7.75 16.0945 7.75 16V11C7.75 10.9055 7.77376 10.8619 7.81783 10.8178ZM11.8178 7.81783C11.8619 7.77376 11.9055 7.75 12 7.75C12.0945 7.75 12.1381 7.77376 12.1822 7.81783C12.2262 7.8619 12.25 7.90554 12.25 8V16C12.25 16.0945 12.2262 16.1381 12.1822 16.1822C12.1381 16.2262 12.0945 16.25 12 16.25C11.9055 16.25 11.8619 16.2262 11.8178 16.1822C11.7738 16.1381 11.75 16.0945 11.75 16V8C11.75 7.90554 11.7738 7.8619 11.8178 7.81783ZM15.8178 13.8178C15.8619 13.7738 15.9055 13.75 16 13.75C16.0945 13.75 16.1381 13.7738 16.1822 13.8178C16.2262 13.8619 16.25 13.9055 16.25 14V16C16.25 16.0945 16.2262 16.1381 16.1822 16.1822C16.1381 16.2262 16.0945 16.25 16 16.25C15.9055 16.25 15.8619 16.2262 15.8178 16.1822C15.7738 16.1381 15.75 16.0945 15.75 16V14C15.75 13.9055 15.7738 13.8619 15.8178 13.8178Z" stroke="#696969" stroke-width="1.5"/>
</svg>
