<svg width="24" height="24" viewBox="0 0 24 24" fill="none" xmlns="http://www.w3.org/2000/svg">
<path d="M3.99997 20.1755H8.46155V14.0468C8.46155 13.7353 8.57704 13.4742 8.80802 13.2635C9.039 13.0527 9.32522 12.9474 9.66669 12.9474H14.3333C14.6748 12.9474 14.961 13.0527 15.192 13.2635C15.423 13.4742 15.5384 13.7353 15.5384 14.0468V20.1755H20V9.4152C20 9.35282 19.9851 9.29629 19.9552 9.2456C19.9252 9.19492 19.8846 9.15009 19.8334 9.1111L12.2436 3.9064C12.1752 3.85182 12.094 3.82454 12 3.82454C11.906 3.82454 11.8248 3.85182 11.7564 3.9064L4.16664 9.1111C4.11537 9.15009 4.07477 9.19492 4.04484 9.2456C4.01493 9.29629 3.99997 9.35282 3.99997 9.4152V20.1755ZM2 20.1755V9.4152C2 9.06705 2.08537 8.73723 2.2561 8.42573C2.42683 8.11424 2.66284 7.85771 2.9641 7.65616L10.5539 2.43978C10.975 2.14659 11.4564 2 11.9979 2C12.5395 2 13.0222 2.14659 13.4461 2.43978L21.0359 7.65616C21.3372 7.85771 21.5732 8.11424 21.7439 8.42573C21.9146 8.73723 22 9.06705 22 9.4152V20.1755C22 20.6729 21.803 21.1014 21.409 21.4608C21.015 21.8203 20.5453 22 20 22H14.7436C14.4022 22 14.1159 21.8946 13.8849 21.6839C13.654 21.4732 13.5385 21.2121 13.5385 20.9006V14.7719H10.4615V20.9006C10.4615 21.2121 10.346 21.4732 10.1151 21.6839C9.88406 21.8946 9.59784 22 9.25639 22H3.99997C3.45468 22 2.98504 21.8203 2.59103 21.4608C2.19701 21.1014 2 20.6729 2 20.1755Z" fill="#696969"/>
</svg>
