<svg width="24" height="24" viewBox="0 0 24 24" fill="none" xmlns="http://www.w3.org/2000/svg">
<path d="M9.24136 3.93032L9.24136 3.93031C10.0173 3.13392 10.9236 2.75 12 2.75C13.0764 2.75 13.9827 3.13392 14.7586 3.93031L14.7586 3.93032C15.5352 4.72728 15.9166 5.66663 15.9166 6.78947C15.9166 7.91228 15.5352 8.85162 14.7586 9.64861C13.9827 10.445 13.0764 10.8289 12 10.8289C10.9236 10.8289 10.0173 10.445 9.24136 9.64862C8.46481 8.85163 8.08335 7.91228 8.08335 6.78947C8.08335 5.66663 8.46481 4.72728 9.24136 3.93032ZM3.16916 17.4918L3.16917 17.4918C3.45231 17.036 3.82437 16.6913 4.29496 16.4469C5.56494 15.8083 6.84058 15.3319 8.12234 15.015C9.40522 14.6978 10.6973 14.5395 12 14.5395C13.3026 14.5395 14.5948 14.6978 15.8777 15.015C17.1594 15.3319 18.435 15.8083 19.705 16.4469C20.1756 16.6913 20.5477 17.036 20.8308 17.4918L20.8308 17.4918C21.112 17.9445 21.25 18.4281 21.25 18.9579V19.9211C21.25 20.3076 21.126 20.6091 20.8718 20.87L20.8718 20.87C20.6183 21.1302 20.3336 21.25 19.9744 21.25H4.02561C3.66642 21.25 3.38168 21.1302 3.12822 20.87L3.12819 20.87C2.874 20.6091 2.75 20.3076 2.75 19.9211V18.9579C2.75 18.4281 2.88801 17.9445 3.16916 17.4918ZM3.24997 19.9474V20.6974H3.99997H20H20.75V19.9474V18.9579C20.75 18.53 20.6265 18.1298 20.3905 17.7738C20.1622 17.4294 19.8568 17.1574 19.4925 16.9549L19.4797 16.9478L19.4666 16.9412C18.2704 16.3365 17.0469 15.8765 15.7966 15.5633L15.7965 15.5633C14.5438 15.2494 13.2778 15.0921 12 15.0921C10.7222 15.0921 9.45622 15.2494 8.20345 15.5633L8.20344 15.5633C6.95309 15.8765 5.72957 16.3365 4.53342 16.9412L4.52031 16.9478L4.50748 16.9549C4.14316 17.1574 3.83775 17.4294 3.60946 17.7738C3.37345 18.1298 3.24997 18.53 3.24997 18.9579V19.9474ZM14.4205 4.33316L13.8833 4.85656L14.4205 4.33316C13.7604 3.65564 12.9402 3.30261 12 3.30261C11.0598 3.30261 10.2396 3.65564 9.57949 4.33316C8.91992 5.01009 8.58332 5.84256 8.58332 6.78947C8.58332 7.73638 8.91992 8.56885 9.57949 9.24577C10.2396 9.92329 11.0598 10.2763 12 10.2763C12.9402 10.2763 13.7604 9.92329 14.4205 9.24577C15.0801 8.56885 15.4167 7.73638 15.4167 6.78947C15.4167 5.84256 15.0801 5.01009 14.4205 4.33316Z" stroke="#696969" stroke-width="1.5"/>
</svg>
